<svg fill="none" height="112" viewBox="0 0 750 112" width="750" xmlns="http://www.w3.org/2000/svg"><path d="M126.002 87.9335L105.43 109.992C104.985 110.471 104.446 110.854 103.846 111.115C103.247 111.377 102.6 111.513 101.947 111.513H4.42337C3.95825 111.513 3.50328 111.377 3.11418 111.122C2.7251 110.867 2.41878 110.505 2.23274 110.078C2.04669 109.652 1.98899 109.181 2.0667 108.722C2.14442 108.263 2.35416 107.837 2.67028 107.496L23.2198 85.4373C23.6648 84.9583 24.2036 84.5759 24.8029 84.3142C25.4021 84.0526 26.0489 83.9171 26.7028 83.9164H124.226C124.695 83.9068 125.157 84.0361 125.553 84.2883C125.949 84.5405 126.262 84.9041 126.452 85.3334C126.642 85.7629 126.7 86.2389 126.62 86.7015C126.54 87.1642 126.325 87.5928 126.002 87.9335ZM105.43 43.5023C104.983 43.0254 104.444 42.6446 103.845 42.383C103.246 42.1216 102.6 41.9849 101.947 41.9816H4.42337C3.95825 41.9818 3.50328 42.1176 3.11418 42.3726C2.7251 42.6274 2.41878 42.9902 2.23274 43.4165C2.04669 43.8429 1.98899 44.3141 2.0667 44.7727C2.14442 45.2313 2.35416 45.6574 2.67028 45.9986L23.2198 68.069C23.6664 68.546 24.2057 68.9268 24.8046 69.1883C25.4034 69.4498 26.0494 69.5864 26.7028 69.5898H124.226C124.69 69.5874 125.143 69.4498 125.531 69.1941C125.919 68.9384 126.223 68.5754 126.408 68.1496C126.592 67.7237 126.649 67.2533 126.57 66.7958C126.492 66.3382 126.283 65.9133 125.967 65.5729L105.43 43.5023ZM4.42337 27.6548H101.947C102.6 27.6542 103.247 27.5187 103.846 27.2571C104.446 26.9955 104.985 26.6131 105.43 26.1339L126.002 4.07515C126.325 3.73443 126.54 3.30578 126.62 2.84313C126.7 2.38049 126.642 1.90452 126.452 1.47512C126.262 1.04571 125.949 0.682063 125.553 0.429927C125.157 0.177791 124.695 0.0484304 124.226 0.0581248H26.7028C26.0489 0.0588131 25.4021 0.194214 24.8029 0.455885C24.2036 0.717555 23.6648 1.09988 23.2198 1.57902L2.67028 23.6378C2.35416 23.979 2.14442 24.4051 2.0667 24.8637C1.98899 25.3223 2.04669 25.7935 2.23274 26.2198C2.41878 26.6461 2.7251 27.009 3.11418 27.2638C3.50328 27.5187 3.95825 27.6546 4.42337 27.6548Z" fill="currentColor"></path><path d="M244.899 47.1946H192.724V30.012H258.46V12.8293H192.55C190.298 12.8171 188.067 13.2485 185.981 14.099C183.896 14.9495 181.998 16.2023 180.398 17.786C178.797 19.3698 177.524 21.2533 176.651 23.3291C175.777 25.4049 175.321 27.6324 175.31 29.8843V47.2991C175.319 49.553 175.772 51.783 176.644 53.8614C177.515 55.9399 178.788 57.8262 180.389 59.4123C181.991 60.9986 183.889 62.2535 185.976 63.1054C188.062 63.9574 190.297 64.3896 192.55 64.3773H244.795V81.56H176.552V98.7426H244.899C247.152 98.7549 249.383 98.3234 251.468 97.473C253.553 96.6224 255.452 95.3696 257.051 93.7859C258.652 92.2022 259.926 90.3187 260.799 88.2429C261.672 86.167 262.128 83.9395 262.14 81.6877V64.2728C262.131 62.019 261.678 59.7891 260.806 57.7105C259.934 55.632 258.662 53.7458 257.061 52.1596C255.459 50.5735 253.56 49.3186 251.474 48.4666C249.388 47.6147 247.153 47.1825 244.899 47.1946Z" fill="currentColor"></path><path d="M345.975 12.8291H293.603C291.347 12.8107 289.11 13.2376 287.019 14.0854C284.929 14.9331 283.026 16.1849 281.421 17.7693C279.814 19.3536 278.537 21.2392 277.661 23.3181C276.785 25.3969 276.327 27.6282 276.316 29.884V81.6874C276.327 83.9432 276.785 86.1746 277.661 88.2534C278.537 90.3323 279.814 92.2179 281.421 93.8021C283.026 95.3866 284.929 96.6383 287.019 97.4861C289.11 98.3338 291.347 98.7607 293.603 98.7424H345.975C348.228 98.7546 350.459 98.3232 352.544 97.4727C354.629 96.6222 356.528 95.3694 358.127 93.7857C359.728 92.202 361.002 90.3184 361.875 88.2426C362.748 86.1668 363.204 83.9393 363.216 81.6874V29.884C363.204 27.6322 362.748 25.4047 361.875 23.3288C361.002 21.2531 359.728 19.3695 358.127 17.7858C356.528 16.2021 354.629 14.9493 352.544 14.0987C350.459 13.2483 348.228 12.8169 345.975 12.8291ZM345.848 81.5597H293.731V30.0117H345.824L345.848 81.5597Z" fill="currentColor"></path><path d="M529.412 12.8292H478.328C476.076 12.817 473.844 13.2484 471.759 14.0989C469.674 14.9494 467.776 16.2022 466.176 17.7859C464.575 19.3696 463.301 21.2532 462.428 23.329C461.555 25.4048 461.099 27.6323 461.087 29.8842V98.7425H478.502V70.5188H529.354V98.7425H546.769V29.8842C546.757 27.6224 546.297 25.3854 545.417 23.3019C544.536 21.2185 543.253 19.3298 541.639 17.7445C540.027 16.1593 538.116 14.9089 536.017 14.0653C533.918 13.2217 531.673 12.8017 529.412 12.8292ZM529.284 53.3362H478.433V30.0119H529.284V53.3362Z" fill="currentColor"></path><path d="M732.759 12.8293H681.676C679.423 12.8171 677.192 13.2485 675.107 14.099C673.022 14.9495 671.125 16.2023 669.524 17.786C667.923 19.3698 666.649 21.2533 665.776 23.3291C664.903 25.4049 664.447 27.6324 664.435 29.8843V98.7426H681.85V70.5189H732.585V98.7426H750V29.8843C749.988 27.6324 749.532 25.4049 748.659 23.3291C747.786 21.2533 746.512 19.3698 744.911 17.786C743.31 16.2023 741.413 14.9495 739.328 14.099C737.243 13.2485 735.012 12.8171 732.759 12.8293ZM732.585 53.3363H681.734V30.012H732.585V53.3363Z" fill="currentColor"></path><path d="M631.579 81.5599H624.613L599.71 20.0273C598.856 17.9045 597.388 16.0851 595.493 14.8027C593.598 13.5201 591.363 12.8329 589.075 12.8292H573.622C572.12 12.8215 570.632 13.1098 569.242 13.6774C567.851 14.2451 566.587 15.0811 565.519 16.1376C564.452 17.1942 563.603 18.4505 563.021 19.8351C562.44 21.2196 562.137 22.7052 562.128 24.2069V98.7425H579.543V30.0119H586.509L611.401 91.5444C612.268 93.6632 613.748 95.4751 615.651 96.749C617.553 98.0229 619.793 98.7007 622.082 98.6961H637.535C639.037 98.7037 640.526 98.4156 641.915 97.8479C643.306 97.2802 644.57 96.4442 645.639 95.3877C646.706 94.3312 647.554 93.0748 648.136 91.6903C648.717 90.3057 649.021 88.8202 649.029 87.3184V12.8292H631.579V81.5599Z" fill="currentColor"></path><path d="M396.014 12.8291H378.599V81.6874C378.611 83.9443 379.069 86.1765 379.946 88.2561C380.822 90.3358 382.101 92.2218 383.707 93.8063C385.314 95.3908 387.219 96.6424 389.31 97.4895C391.402 98.3365 393.641 98.7622 395.898 98.7424H448.142V81.5597H396.014V12.8291Z" fill="currentColor"></path></svg>