<svg fill="none" height="164" viewBox="0 0 750 164" width="750" xmlns="http://www.w3.org/2000/svg"><path d="M238.747 152.559V50.1285H253.955L255.403 58.3961H256.128C260.472 52.7332 267.856 48.677 278.138 48.677C296.953 48.677 312.019 64.0594 312.019 86.8296C312.019 109.599 296.966 124.981 278.138 124.981C267.999 124.981 260.912 120.769 257.149 115.988H256.424V152.546H238.76L238.747 152.559ZM294.341 86.842C294.341 73.4942 285.793 65.0836 275.37 65.0836C264.947 65.0836 256.399 73.4942 256.399 86.842C256.399 100.191 264.947 108.601 275.37 108.601C285.793 108.601 294.341 100.191 294.341 86.842Z" fill="currentColor"></path><path d="M320.986 86.8429C320.986 64.6434 336.905 48.6907 358.191 48.6907C379.477 48.6907 395.396 64.6434 395.396 86.8429C395.396 109.042 379.477 124.995 358.191 124.995C336.905 124.995 320.986 108.887 320.986 86.8429ZM377.589 86.8429C377.589 73.78 368.899 65.0844 358.191 65.0844C347.483 65.0844 338.651 73.7932 338.651 86.8429C338.651 99.8932 347.483 108.459 358.191 108.459C368.899 108.459 377.589 99.9057 377.589 86.8429Z" fill="currentColor"></path><path d="M408.186 21.9929H425.85V123.555H408.186V21.9929Z" fill="currentColor"></path><path d="M491.434 50.1274H510.25L478.398 139.352C475.217 148.203 470.872 152.557 459.427 152.557H442.344V136.164H456.828C459.441 136.164 460.876 134.856 461.755 132.678L463.488 127.896L433.667 50.1274H452.483L471.454 101.058H474.351L491.434 50.1274Z" fill="currentColor"></path><path d="M513.628 127.171H531.578C532.302 131.954 537.074 138.485 548.377 138.485C558.941 138.485 565.899 131.811 565.899 121.651V111.349H565.175C561.269 115.56 554.028 119.331 544.756 119.331C525.94 119.331 511.456 104.816 511.456 83.9261C511.456 63.0359 525.94 48.677 544.756 48.677C554.454 48.677 561.554 52.5907 566.041 58.1111H566.765L568.214 50.1285H583.564V121.651C583.564 141.09 570.528 154.01 548.377 154.01C523.625 154.01 514.069 137.759 513.628 127.171ZM565.899 83.9393C565.899 72.4832 557.791 64.5004 547.51 64.5004C537.229 64.5004 529.263 72.4832 529.263 83.9393C529.263 95.3955 537.372 103.521 547.51 103.521C557.649 103.521 565.899 95.5376 565.899 83.9393Z" fill="currentColor"></path><path d="M595.839 86.8429C595.839 64.6434 611.759 48.6907 633.045 48.6907C654.33 48.6907 670.249 64.6434 670.249 86.8429C670.249 109.042 654.33 124.995 633.045 124.995C611.759 124.995 595.839 108.887 595.839 86.8429ZM652.442 86.8429C652.442 73.78 643.752 65.0844 633.045 65.0844C622.337 65.0844 613.504 73.7932 613.504 86.8429C613.504 99.8932 622.337 108.459 633.045 108.459C643.752 108.459 652.442 99.9057 652.442 86.8429Z" fill="currentColor"></path><path d="M682.548 123.543V50.1285H697.742L699.191 57.0876H699.915C702.812 53.7571 710.054 48.677 721.049 48.677C737.842 48.677 750 60.8585 750 79.4292V123.53H732.337V81.7495C732.337 72.3147 725.677 65.4983 716.56 65.4983C707.444 65.4983 700.2 72.6128 700.2 81.7495V123.53H682.535L682.548 123.543Z" fill="currentColor"></path><path d="M135.927 114.977L179.351 89.8492C181.654 88.5143 183.076 86.0388 183.076 83.3822V33.1262C183.076 30.4695 181.654 27.9943 179.351 26.6595L135.927 1.53139C133.625 0.196604 130.767 0.209572 128.478 1.53139L85.0525 26.6595C82.7511 27.9943 81.3284 30.4695 81.3284 33.1262V122.934L50.8739 140.546L20.4194 122.934V87.6982L50.8739 70.0864L70.9573 81.7104V58.0727L54.598 48.5996C53.4728 47.9517 52.1803 47.6018 50.8739 47.6018C49.5674 47.6018 48.2749 47.9517 47.1497 48.5996L3.72441 73.7276C1.42253 75.0625 0 77.538 0 80.1946V130.451C0 133.107 1.42253 135.582 3.72441 136.917L47.1497 162.046C49.4512 163.367 52.2965 163.367 54.598 162.046L98.0233 136.917C100.325 135.582 101.747 133.107 101.747 130.451V40.6297L102.291 40.3186L132.19 23.0179L162.644 40.6297V75.8662L132.19 93.4779L112.132 81.8789V105.517L128.465 114.965C130.767 116.286 133.625 116.286 135.914 114.965L135.927 114.977Z" fill="currentColor"></path></svg>