<svg fill="none" height="154" viewBox="0 0 750 154" width="750" xmlns="http://www.w3.org/2000/svg"><path d="M203.035 50.1862H211.185L233.992 103.372H223.224L218.289 91.2022H195.332L190.546 103.372H180.003L203.035 50.1862ZM214.999 83.0893L206.848 61.4544L198.548 83.0893H214.999Z" fill="currentColor"></path><path d="M244.099 50.1862H254.941L269.373 90.3759L284.254 50.1862H294.425L273.038 103.372H264.887L244.099 50.1862Z" fill="currentColor"></path><path d="M328.096 50.1862H336.249L359.054 103.372H348.286L343.352 91.2022H320.394L315.608 103.372H305.066L328.096 50.1862ZM340.061 83.0893L331.911 61.4544L323.61 83.0893H340.061Z" fill="currentColor"></path><path d="M379.894 50.1862H389.317V94.8082H411.824V103.372H379.894V50.1862Z" fill="currentColor"></path><path d="M450.749 50.1862H458.901L481.707 103.372H470.939L466.005 91.2022H443.047L438.261 103.372H427.718L450.749 50.1862ZM462.714 83.0893L454.563 61.4544L446.263 83.0893H462.714Z" fill="currentColor"></path><path d="M502.547 50.1862H515.035L540.683 89.6998H540.833V50.1862H550.254V103.372H538.291L512.117 62.5811H511.969V103.372H502.547V50.1862Z" fill="currentColor"></path><path d="M613.359 62.6561C611.416 60.5528 609.521 59.1507 607.676 58.4493C605.88 57.7482 604.061 57.3978 602.218 57.3978C599.477 57.3978 596.984 57.8984 594.74 58.9002C592.547 59.8517 590.653 61.2039 589.056 62.9568C587.46 64.6594 586.216 66.6627 585.317 68.9665C584.469 71.2702 584.047 73.7491 584.047 76.4033C584.047 79.2579 584.469 81.8873 585.317 84.291C586.216 86.695 587.46 88.7733 589.056 90.5261C590.653 92.279 592.547 93.6562 594.74 94.6579C596.984 95.6595 599.477 96.1604 602.218 96.1604C604.362 96.1604 606.43 95.6595 608.425 94.6579C610.467 93.6062 612.362 91.9535 614.108 89.6998L621.883 95.2588C619.491 98.5641 616.575 100.968 613.134 102.47C609.695 103.973 606.031 104.724 602.143 104.724C598.054 104.724 594.291 104.073 590.852 102.771C587.46 101.419 584.519 99.5408 582.028 97.1369C579.585 94.6829 577.664 91.7531 576.27 88.3476C574.873 84.9421 574.176 81.161 574.176 77.0044C574.176 72.7476 574.873 68.8912 576.27 65.4357C577.664 61.93 579.585 58.9502 582.028 56.4963C584.519 54.0423 587.46 52.1642 590.852 50.8623C594.291 49.5101 598.054 48.834 602.143 48.834C605.732 48.834 609.047 49.4851 612.087 50.787C615.178 52.039 618.045 54.1925 620.688 57.2476L613.359 62.6561Z" fill="currentColor"></path><path d="M643.164 50.1862H652.585V71.3702H677.336V50.1862H686.758V103.372H677.336V79.934H652.585V103.372H643.164V50.1862Z" fill="currentColor"></path><path d="M713.545 50.1862H748.615V58.75H722.967V71.8211H747.27V80.3849H722.967V94.8082H749.962V103.372H713.545V50.1862Z" fill="currentColor"></path><path clip-rule="evenodd" d="M151.878 76.786C151.878 118.919 117.879 153.074 75.939 153.074C33.9991 153.074 0 118.919 0 76.786C0 34.6534 33.9991 0.498047 75.939 0.498047C117.879 0.498047 151.878 34.6534 151.878 76.786ZM54.4202 107.143H39.6826C36.5859 107.143 35.0561 107.143 34.1232 106.544C33.116 105.887 32.5002 104.801 32.4256 103.601C32.3697 102.495 33.1345 101.146 34.6643 98.4473L71.0533 34.0119C72.6016 31.2757 73.3852 29.9077 74.3739 29.4016C75.4373 28.8583 76.7059 28.8583 77.7692 29.4016C78.758 29.9077 79.5415 31.2757 81.0899 34.0119L88.6089 47.1976C90.2812 50.1331 91.1293 51.6216 91.4995 53.1839C91.9099 54.8894 91.9099 56.6884 91.4995 58.3939C91.1265 59.9682 90.2869 61.4676 88.5892 64.4474L69.4751 98.3912L69.4256 98.4782C67.742 101.438 66.889 102.938 65.7066 104.07C64.4195 105.307 62.8711 106.206 61.1735 106.712C59.6251 107.143 57.8901 107.143 54.4202 107.143ZM91.6376 107.145H112.755C115.871 107.145 117.438 107.145 118.371 106.527C119.378 105.87 120.012 104.765 120.068 103.565C120.122 102.496 119.374 101.199 117.908 98.6572C117.858 98.5704 117.807 98.4825 117.755 98.3929L107.177 80.2141L107.057 80.0097C105.571 77.4843 104.82 76.2092 103.857 75.7163C102.793 75.1728 101.544 75.1728 100.48 75.7163C99.5101 76.2222 98.7265 77.5529 97.1782 80.2328L86.638 98.4115L86.6019 98.4742C85.0589 101.15 84.2878 102.487 84.3434 103.584C84.4181 104.784 85.0336 105.889 86.0411 106.545C86.9552 107.145 88.5221 107.145 91.6376 107.145Z" fill="currentColor" fill-rule="evenodd"></path></svg>