<svg fill="none" height="108" viewBox="0 0 468 108" width="468" xmlns="http://www.w3.org/2000/svg"><path clip-rule="evenodd" d="M105.744 0.786133H0.0898438V107.465H105.742V70.2268H88.2084C82.1643 83.8116 68.5599 93.2732 52.991 93.2732C31.5275 93.2732 14.1456 75.5716 14.1456 54.0509C14.1456 32.5307 31.5275 14.9803 52.991 14.9803C68.8618 14.9803 82.4662 24.7486 88.5127 38.6359H105.744V0.786133ZM208.063 70.2247C201.867 83.8091 188.414 93.2703 172.696 93.2711C151.836 93.2711 134.756 76.4834 134 55.5746H225.597V0.786133H119.942V107.463H225.597V70.2247H208.063ZM209.417 42.4505H135.656C140.341 24.9 155.908 14.9805 172.687 14.9805C189.465 14.9805 203.976 24.2884 209.417 42.4505ZM453.746 54.0488C453.746 75.7207 436.514 93.2711 415.051 93.2711C393.738 93.2711 376.356 75.5691 376.356 54.0488C376.356 32.5285 393.588 14.9782 415.051 14.9782C436.514 14.9782 453.746 32.3773 453.746 54.0488ZM467.952 0.786133H362.298V107.465H467.952V0.786133ZM331.555 70.2247H349.089V107.463H239.656V0.786133H257.492V54.0488C257.492 77.8579 275.026 93.1195 295.884 93.1195C312.056 93.1195 326.264 84.2656 331.555 70.2247Z" fill="currentColor" fill-rule="evenodd"></path></svg>