<svg fill="none" height="159" viewBox="0 0 691 159" width="691" xmlns="http://www.w3.org/2000/svg"><path clip-rule="evenodd" d="M0.448242 79.5467C0.448242 35.9164 35.8168 0.547852 79.447 0.547852C123.078 0.547852 158.448 35.9164 158.448 79.5467C158.448 123.177 123.078 158.545 79.447 158.545C35.8168 158.545 0.448242 123.177 0.448242 79.5467ZM79.447 4.54785C38.0259 4.54785 4.44824 38.1255 4.44824 79.5467C4.44824 120.968 38.0259 154.545 79.447 154.545C120.869 154.545 154.448 120.967 154.448 79.5467C154.448 38.1257 120.869 4.54785 79.447 4.54785Z" fill="currentColor" fill-opacity="0.4" fill-rule="evenodd"></path><path clip-rule="evenodd" d="M44.6024 60.9354L46.5525 54.9106C46.9489 53.6852 47.916 52.7317 49.1459 52.3557L55.2002 50.4939C56.0382 50.2379 56.045 49.0556 55.2138 48.7861L49.1867 46.8359C47.9636 46.4396 47.01 45.4724 46.6318 44.2426L44.7722 38.1883C44.5163 37.3525 43.334 37.3434 43.0644 38.177L41.1143 44.2018C40.7179 45.4249 39.7508 46.3784 38.5209 46.7567L32.4666 48.6162C31.6286 48.8744 31.6195 50.0545 32.453 50.324L38.4801 52.2741C39.7032 52.6705 40.6568 53.6399 41.035 54.8698L42.8946 60.9218C43.1505 61.7599 44.3328 61.7689 44.6024 60.9354Z" fill="currentColor" fill-rule="evenodd"></path><path clip-rule="evenodd" d="M140.296 57.4289C137.801 54.6379 133.905 53.0664 130.118 52.422C126.301 51.8031 122.298 51.8605 118.53 52.53C110.905 53.8198 103.978 56.977 97.9363 60.8719C94.7988 62.7834 92.1232 64.9953 89.3512 67.2478C88.0156 68.3871 86.7979 69.6002 85.5297 70.796L82.0645 74.2438C78.2993 78.1796 74.588 81.7643 70.9972 84.7356C67.3919 87.6933 64.0212 89.9396 60.6994 91.5082C57.3797 93.085 53.8276 94.0123 49.1977 94.1608C44.6085 94.3226 39.1789 93.4943 33.3711 92.1272C27.5321 90.7661 21.4005 88.826 14.5486 87.1566C16.9394 93.7893 20.5396 99.6505 25.1619 105.008C29.8384 110.273 35.678 115.072 43.1796 118.228C50.5729 121.454 59.8639 122.612 68.5513 120.865C77.2617 119.188 84.9055 115.157 91.0841 110.496C97.2786 105.787 102.29 100.423 106.515 94.8458C107.681 93.3051 108.298 92.4427 109.142 91.2384L111.475 87.7829C113.096 85.6455 114.572 83.2119 116.177 81.0942C119.323 76.659 122.424 72.229 126.028 68.1475C127.842 66.0774 129.755 64.0973 132.013 62.1944C133.14 61.2656 134.356 60.3566 135.704 59.5378C137.072 58.6546 138.517 57.9633 140.296 57.4289Z" fill="currentColor" fill-opacity="0.4" fill-rule="evenodd"></path><path clip-rule="evenodd" d="M140.296 57.4289C137.615 50.663 132.63 44.9672 125.94 40.7645C119.289 36.6079 110.053 34.4867 100.901 36.2949C96.379 37.1694 91.9983 38.853 88.1542 41.095C84.3273 43.3282 80.8981 46.0163 77.9294 48.9002C76.4474 50.347 75.1022 51.8562 73.7658 53.374L70.302 57.7902L64.9521 64.899C58.1318 74.0454 50.7873 84.7644 38.7345 87.9406C26.9022 91.0586 21.7703 88.2975 14.5486 87.1566C15.8691 90.5658 17.5047 93.8762 19.7222 96.7887C21.8983 99.7602 24.4686 102.551 27.6642 104.943C29.2791 106.092 30.9841 107.226 32.8778 108.188C34.7628 109.117 36.7956 109.935 38.9654 110.551C43.2814 111.734 48.1405 112.148 52.8452 111.512C57.5521 110.884 62.0511 109.392 65.9837 107.411C69.9453 105.449 73.3963 103.059 76.4778 100.537C82.6033 95.4499 87.3679 89.8293 91.3926 84.1478C93.417 81.3072 95.2546 78.413 96.9541 75.518L98.9544 72.0714C99.5659 71.0639 100.185 70.0502 100.813 69.1062C103.347 65.3132 105.826 62.2719 108.837 59.9891C111.806 57.6474 115.941 55.9171 121.466 55.5152C126.968 55.1084 133.32 55.8601 140.296 57.4289Z" fill="currentColor" fill-rule="evenodd"></path><path clip-rule="evenodd" d="M110.529 113.645C110.529 118.614 114.56 122.645 119.529 122.645C124.499 122.645 128.524 118.614 128.524 113.645C128.524 108.676 124.499 104.645 119.529 104.645C114.56 104.645 110.529 108.676 110.529 113.645Z" fill="currentColor" fill-opacity="0.4" fill-rule="evenodd"></path><path d="M690.882 57.4567V48.3692C690.882 48.0089 690.59 47.7168 690.23 47.7168H638.45C638.09 47.7168 637.798 48.0089 637.798 48.3692V57.4567H658.842V116.247H669.837V57.4567H690.882Z" fill="currentColor"></path><path d="M583.681 47.7168C583.32 47.7168 583.028 48.0088 583.028 48.3692V115.594C583.028 115.954 583.32 116.247 583.681 116.247H627.255C627.615 116.247 627.907 115.954 627.907 115.594V106.603H594.023V85.0658H622.018V75.6155H594.023V57.3602H625.494V48.3692C625.494 48.0089 625.202 47.7168 624.841 47.7168H583.681Z" fill="currentColor"></path><path d="M558.413 115.848L558.65 116.247H567.096C567.457 116.247 567.749 115.954 567.749 115.594V48.3692C567.749 48.0089 567.457 47.7168 567.096 47.7168H556.947V95.1775C555.185 92.3721 553.139 89.2839 550.809 85.9136C547.842 81.5274 544.65 77.0779 541.233 72.5651C537.881 67.9881 534.464 63.5716 530.982 59.3156C527.561 54.992 524.33 51.2106 521.287 47.9737L521.046 47.7168H513.097C512.736 47.7168 512.444 48.0088 512.444 48.3692V115.594C512.444 115.954 512.736 116.247 513.097 116.247H523.246V65.4038C524.634 67.0427 526.111 68.859 527.678 70.8531C529.795 73.5476 531.977 76.4358 534.225 79.5179L534.227 79.5212L534.23 79.5245C536.475 82.5404 538.722 85.6853 540.969 88.9593L540.972 88.9637L540.975 88.9681C543.287 92.2437 545.502 95.4867 547.621 98.6971L547.623 98.7003L547.626 98.7034C549.743 101.847 551.699 104.894 553.494 107.843L553.497 107.848L553.501 107.854C555.364 110.809 557.002 113.474 558.413 115.848Z" fill="currentColor"></path><path d="M499.164 49.0817L499.413 48.8087C499.795 48.3899 499.498 47.7168 498.931 47.7168H486.893L486.649 47.9998C485.051 49.8533 483.066 52.0314 480.69 54.5354C478.376 56.9777 475.901 59.5494 473.265 62.2498C470.63 64.9493 467.962 67.6488 465.263 70.3484C463.104 72.4563 461.089 74.3991 459.218 76.1769V47.7168H448.876C448.516 47.7168 448.224 48.0088 448.224 48.3692V115.594C448.224 115.954 448.516 116.247 448.876 116.247H459.218V85.1574C461.488 86.6438 463.809 88.3831 466.18 90.377L466.184 90.3799L466.187 90.3827C469.059 92.7441 471.869 95.3304 474.617 98.1421L474.623 98.1488L474.63 98.1554C477.439 100.901 480.089 103.806 482.58 106.871L482.582 106.874L482.585 106.878C485.075 109.879 487.275 112.876 489.186 115.87L489.426 116.247H501.16C501.662 116.247 501.976 115.704 501.726 115.269L501.586 115.025C499.825 111.96 497.614 108.743 494.958 105.373C492.369 102.008 489.587 98.7092 486.612 95.4755C483.637 92.2413 480.596 89.2001 477.489 86.3521C474.675 83.7726 471.986 81.5577 469.423 79.7107C471.603 77.583 473.914 75.2983 476.356 72.8566C479.061 70.1513 481.766 67.414 484.471 64.6444C487.241 61.8103 489.882 59.0725 492.395 56.431L492.398 56.4274L492.402 56.4238C494.913 53.7195 497.167 51.272 499.164 49.0817Z" fill="currentColor"></path><path clip-rule="evenodd" d="M385.811 47.2031C385.451 47.2032 385.159 47.4953 385.159 47.8555V115.635C385.159 115.996 385.451 116.288 385.811 116.288H395.128V91.3673H408.738C410.269 93.2006 411.762 95.1188 413.219 97.1218L413.224 97.1294L413.23 97.1369C415.612 100.26 417.813 103.518 419.834 106.912L419.836 106.915L419.838 106.919C421.668 109.922 423.265 112.888 424.63 115.817L424.849 116.288H435.874C436.347 116.288 436.662 115.801 436.466 115.371C435.198 112.593 433.824 109.872 432.298 107.222C430.224 103.518 427.949 99.8504 425.474 96.2201C424.059 94.1454 422.614 92.13 421.139 90.1737C425.251 88.9164 428.505 86.6429 430.858 83.343L430.86 83.3404C433.685 79.3467 435.085 74.6497 435.085 69.285C435.085 65.5985 434.444 62.2253 433.147 59.1774C431.845 56.0851 429.886 53.5206 427.276 51.4974C424.684 49.4634 421.491 48.1692 417.73 47.5888C416.853 47.4271 415.947 47.3303 415.013 47.2974C414.101 47.2347 413.305 47.2027 412.628 47.2027C409.77 47.2027 406.911 47.2024 404.053 47.2021C397.972 47.2015 391.892 47.2011 385.811 47.2031ZM424.929 69.285C424.929 71.0655 424.633 72.8176 424.037 74.5446C423.455 76.2031 422.525 77.6571 421.24 78.9134C420.022 80.103 418.416 80.9467 416.381 81.4188C415.736 81.5652 415.042 81.6691 414.296 81.7287L414.295 81.7288L414.294 81.7289C413.561 81.79 412.913 81.8198 412.347 81.8198H395.128V56.7502H412.347C412.913 56.7502 413.561 56.78 414.294 56.8411L414.311 56.8425L414.329 56.8432C415.054 56.8722 415.726 56.9734 416.349 57.1431L416.369 57.1487L416.39 57.1532C418.417 57.5939 420.018 58.4345 421.233 59.6498L421.236 59.6532L421.24 59.6564C422.523 60.9108 423.453 62.3793 424.037 64.0702V64.0723L424.038 64.0744C424.632 65.7682 424.929 67.5039 424.929 69.285Z" fill="currentColor" fill-rule="evenodd"></path><path clip-rule="evenodd" d="M360.698 107.199L360.7 107.205C361.667 109.979 362.699 112.817 363.796 115.719L363.995 116.247H375.024C375.477 116.247 375.792 115.797 375.637 115.371C373.228 108.752 370.796 102.141 368.315 95.5489C366.061 89.4949 363.839 83.7617 361.648 78.3495C359.522 72.9371 357.395 67.7813 355.268 62.8821C353.134 57.9028 350.888 52.9729 348.549 48.0869C348.44 47.8606 348.212 47.7168 347.961 47.7168H339.164C338.913 47.7168 338.684 47.8606 338.576 48.0869C336.236 52.973 333.991 57.9031 331.857 62.8825C329.73 67.7799 327.572 72.9342 325.382 78.3453L325.38 78.3492L325.379 78.3531C323.253 83.7636 321.063 89.4955 318.81 95.5486C316.328 102.141 313.896 108.752 311.487 115.371C311.332 115.797 311.647 116.247 312.1 116.247H322.658L322.659 116.246H322.865L323.107 115.986C325.654 113.252 328.501 110.568 331.649 107.936L331.652 107.934L331.655 107.931C334.815 105.233 338.11 102.731 341.539 100.424L341.547 100.419L341.554 100.413C344.932 98.0265 348.332 95.8847 351.753 93.9874L351.757 93.9852L351.761 93.9829C352.993 93.2817 354.206 92.6285 355.4 92.023L357.708 98.6156L357.71 98.6206C358.738 101.513 359.734 104.372 360.698 107.199ZM348.833 74.6921L348.835 74.6977L348.837 74.7033C349.766 77.055 350.695 79.446 351.624 81.8766C351.555 81.9072 351.484 81.939 351.412 81.9718C348.143 83.4608 344.629 85.3856 340.872 87.7421C337.275 89.9982 333.706 92.4493 330.166 95.0951L331.665 90.8144C333.648 85.2506 335.631 79.8784 337.614 74.6976C339.437 70.0253 341.336 65.5313 343.31 61.2154C345.226 65.5296 347.067 70.0218 348.833 74.6921Z" fill="currentColor" fill-rule="evenodd"></path><path d="M314.179 57.4567V48.3692C314.179 48.0089 313.887 47.7168 313.526 47.7168H261.747C261.387 47.7168 261.095 48.0089 261.095 48.3692V57.4567H282.139V115.594C282.139 115.954 282.431 116.247 282.792 116.247H292.482C292.842 116.247 293.134 115.954 293.134 115.594V57.4567H314.179Z" fill="currentColor"></path><path d="M213.584 115.413L213.581 115.412C209.593 113.712 206.276 111.285 203.646 108.129L203.643 108.125L203.64 108.122C201.037 104.926 199.346 101.158 198.561 96.8379C198.522 96.6219 198.571 96.3991 198.698 96.22C198.825 96.0409 199.019 95.9207 199.236 95.8865L208.007 94.5042C208.422 94.4388 208.819 94.6995 208.923 95.1065C209.989 99.2478 212.183 102.462 215.509 104.792C218.885 107.102 222.866 108.269 227.486 108.269C230.483 108.269 233.161 107.806 235.532 106.895C237.93 105.953 239.792 104.632 241.151 102.948C242.488 101.292 243.163 99.3309 243.163 97.0257C243.163 95.5946 242.909 94.4232 242.438 93.4818C242.434 93.4733 242.43 93.4648 242.426 93.4562C241.968 92.4533 241.328 91.6155 240.503 90.9331C240.495 90.9266 240.487 90.92 240.48 90.9132C239.652 90.174 238.701 89.5491 237.624 89.0403C236.522 88.5198 235.373 88.0906 234.176 87.7531L234.165 87.75L216.67 82.5538C214.722 81.9696 212.839 81.2391 211.021 80.3624L211.016 80.36L211.01 80.3572C209.164 79.434 207.51 78.2937 206.052 76.9355L206.048 76.9311L206.045 76.9288C204.567 75.518 203.395 73.8409 202.528 71.9059L202.526 71.9012C201.644 69.901 201.217 67.5757 201.217 64.9468C201.217 60.7324 202.306 57.0932 204.521 54.0735L204.522 54.0722C206.746 51.0511 209.745 48.7554 213.489 47.1787C217.229 45.6043 221.424 44.8421 226.062 44.8745C230.762 44.9069 234.99 45.75 238.73 47.4224C242.499 49.0615 245.625 51.4281 248.093 54.5214C250.599 57.6214 252.27 61.3206 253.119 65.5984C253.162 65.8137 253.116 66.0372 252.992 66.2183C252.868 66.3993 252.676 66.5227 252.46 66.5605L243.451 68.1334C243.237 68.1707 243.018 68.1214 242.841 67.9964C242.663 67.8713 242.543 67.6809 242.507 67.4671C242.052 64.7978 241.042 62.5338 239.488 60.6517L239.479 60.6408C237.943 58.7131 236.017 57.2362 233.687 56.2074L233.679 56.2038C231.344 55.1425 228.772 54.5915 225.952 54.5609H225.951C223.248 54.5302 220.832 54.9603 218.69 55.835C216.542 56.7123 214.866 57.9229 213.63 59.4534L213.625 59.4594C212.412 60.9318 211.809 62.6227 211.809 64.5655C211.809 66.4947 212.359 67.9828 213.4 69.1078C214.523 70.2895 215.904 71.2436 217.556 71.9653C219.307 72.6841 221.006 73.2762 222.655 73.7429L222.659 73.744L235.715 77.5083C237.237 77.9295 238.975 78.5094 240.927 79.2452C242.97 80.0033 244.94 81.0715 246.836 82.4443C248.788 83.825 250.391 85.6685 251.65 87.9546C252.944 90.2707 253.564 93.1508 253.564 96.549C253.564 99.9647 252.874 103.035 251.472 105.739C250.112 108.426 248.202 110.683 245.752 112.504L245.746 112.508C243.31 114.286 240.489 115.628 237.295 116.541C234.099 117.486 230.685 117.956 227.057 117.956C222.102 117.956 217.606 117.114 213.584 115.413Z" fill="currentColor"></path></svg>