<svg fill="none" viewBox="0 0 462 101" xmlns="http://www.w3.org/2000/svg"><g clip-path="url(#omni_svg__clip0_4516_2546)" fill="currentColor"><path clip-rule="evenodd" d="M50.71 100.711c27.615 0 50.001-22.386 50.001-50 0-27.615-22.386-50-50-50s-50 22.385-50 50c0 7.88 1.823 15.335 5.07 21.966L18.339 60.12a33.718 33.718 0 01-1.33-9.41c0-18.614 15.089-33.703 33.703-33.703 18.614 0 33.704 15.09 33.704 33.704S69.325 84.413 50.71 84.413c-3.219 0-6.332-.451-9.28-1.293L28.857 95.694a49.799 49.799 0 0021.854 5.017z" fill-rule="evenodd"></path><path d="M28.79 85.359a9 9 0 11-12.728-12.728A9 9 0 0128.792 85.36zM63.711 50.71c0 7.18-5.82 13-13 13s-13-5.82-13-13 5.82-13 13-13 13 5.82 13 13zM377 101V84.704h34.37V21.296h-25.5V5h67.26v16.296h-25.5v63.408H462V101h-85zM229 5v96h-16.296V50.094C203.815 58.21 191.985 63.16 179 63.16s-24.815-4.95-33.704-13.066V101H129V5h16.296v8.16c0 18.614 15.09 33.704 33.704 33.704s33.704-15.09 33.704-33.704V5H229zM355 101h-16.296V50.821c0-18.547-15.09-33.583-33.704-33.583s-33.704 15.036-33.704 33.583V101H255V50.821c0-14.576 6.282-27.69 16.296-36.801A49.92 49.92 0 01305 1a49.92 49.92 0 0133.704 13.02C348.718 23.13 355 36.245 355 50.82V101z"></path></g><defs><clipPath id="omni_svg__clip0_4516_2546"><path d="M0 0h462v101H0z" fill="currentColor"></path></clipPath></defs></svg>