<svg fill="none" height="144" viewBox="0 0 822 144" width="822" xmlns="http://www.w3.org/2000/svg"><path d="M24.0235 22.0566L62.2362 0L100.449 22.0566L86.4 30.2049L62.2362 16.2966L38.0723 30.2049L24.0235 22.0566ZM100.449 49.8731L86.4 41.7249L62.2362 55.6332L38.0723 41.7249L24.0235 49.8731V66.1698L48.1874 80.0778V107.894L62.2362 116.043L76.2852 107.894V80.0778L100.449 66.1698V49.8731ZM100.449 93.9864V77.6898L86.4 85.8378V102.134L100.449 93.9864ZM110.423 99.7464L86.2596 113.654V129.951L124.472 107.894V63.7812L110.423 71.9298V99.7464ZM96.375 35.9649L110.423 44.1131V60.4098L124.472 52.2614V35.9649L110.423 27.8166L96.375 35.9649ZM48.1874 119.555V135.852L62.2362 144L76.2852 135.852V119.555L62.2362 127.703L48.1874 119.555ZM24.0235 93.9864L38.0723 102.134V85.8378L24.0235 77.6898V93.9864ZM48.1874 35.9649L62.2362 44.1131L76.2852 35.9649L62.2362 27.8166L48.1874 35.9649ZM14.0488 44.1131L28.0976 35.9649L14.0488 27.8166L0 35.9649V52.2614L14.0488 60.4098V44.1131ZM14.0488 71.9298L0 63.7812V107.894L38.2126 129.951V113.654L14.0488 99.7464V71.9298Z" fill="currentColor"></path><path d="M235.23 90.3696V90.1404C235.23 79.3788 229.505 73.998 220.232 70.449C225.956 67.2438 230.765 62.2062 230.765 53.1617V52.9328C230.765 40.3393 220.69 32.2108 204.319 32.2108H167.111V112.351H205.235C223.324 112.351 235.23 105.024 235.23 90.3696ZM213.248 56.1384C213.248 62.0916 208.326 64.6104 200.541 64.6104H184.284V47.6664H201.686C209.127 47.6664 213.248 50.6431 213.248 55.9094V56.1384ZM217.714 88.1946C217.714 94.1478 213.02 96.8952 205.235 96.8952H184.284V79.2648H204.662C213.707 79.2648 217.714 82.5846 217.714 87.9654V88.1946Z" fill="currentColor"></path><path d="M322.088 112.351V32.2108H304.686V81.5544L267.135 32.2108H250.878V112.351H268.28V61.4046L307.09 112.351H322.088Z" fill="currentColor"></path><path d="M410.59 90.3696V90.1404C410.59 79.3788 404.866 73.998 395.593 70.449C401.317 67.2438 406.125 62.2062 406.125 53.1617V52.9328C406.125 40.3393 396.05 32.2108 379.679 32.2108H342.471V112.351H380.595C398.684 112.351 410.59 105.024 410.59 90.3696ZM388.609 56.1384C388.609 62.0916 383.686 64.6104 375.901 64.6104H359.644V47.6664H377.046C384.487 47.6664 388.609 50.6431 388.609 55.9094V56.1384ZM393.074 88.1946C393.074 94.1478 388.38 96.8952 380.595 96.8952H359.644V79.2648H380.023C389.067 79.2648 393.074 82.5846 393.074 87.9654V88.1946Z" fill="currentColor"></path><path d="M516.848 98.1936L507.803 89.0352C500.934 95.4462 494.638 99.453 484.792 99.453C469.45 99.453 458.345 86.631 458.345 70.8318C458.345 55.0327 469.45 42.4392 484.792 42.4392C493.951 42.4392 500.819 46.4462 507.231 52.3995L516.275 41.9813C508.604 34.6542 499.675 29.5023 484.906 29.5023C460.635 29.5023 443.576 48.1635 443.576 71.061C443.576 94.1868 460.979 112.39 484.334 112.39C499.331 112.39 508.49 106.895 516.848 98.1936Z" fill="currentColor"></path><path d="M585.113 77.2428V111.016H599.195V30.8761H585.113V64.1916H546.875V30.8761H532.793V111.016H546.875V77.2428H585.113Z" fill="currentColor"></path><path d="M662.364 30.3037H649.314L614.052 111.016H628.476L636.72 91.668H674.616L682.746 111.016H697.626L662.364 30.3037ZM669.462 79.1892H641.874L655.608 47.1332L669.462 79.1892Z" fill="currentColor"></path><path d="M713.316 30.8761V111.016H727.398V30.8761H713.316Z" fill="currentColor"></path><path d="M805.98 86.2872L763.044 30.8761H749.994V111.016H763.848V54.0023L808.038 111.016H819.834V30.8761H805.98V86.2872Z" fill="currentColor"></path></svg>