<svg fill="none" height="141" viewBox="0 0 717 141" width="717" xmlns="http://www.w3.org/2000/svg"><path d="M178.737 76.4235C178.737 77.7416 177.556 78.9209 176.237 78.9209H130.126C131.306 89.8818 139.848 100.565 151.931 100.565C160.195 100.565 166.306 97.374 170.959 90.7142C171.445 90.0205 172.14 89.5349 172.973 89.5349C174.292 89.5349 175.265 90.5061 175.265 91.8242C175.265 92.3098 175.126 92.6567 174.917 93.0035C170.265 101.12 161.028 105.074 151.931 105.074C136.376 105.074 125.334 91.1998 125.334 76.3542C125.334 61.5085 136.376 47.7034 151.931 47.7034C167.487 47.7034 178.737 61.5778 178.737 76.4235ZM173.737 74.2036C172.765 62.4797 164.015 52.4207 151.931 52.4207C139.848 52.4207 131.237 62.4797 130.126 74.2036H173.737Z" fill="currentColor"></path><path d="M234.778 48.4665C236.098 48.4665 237.07 49.6458 237.07 50.8251C237.07 52.1432 236.098 53.1838 234.778 53.1838H222.417V101.883C222.417 103.063 221.376 104.172 220.056 104.172C218.737 104.172 217.695 102.993 217.695 101.883V53.1838H205.82C204.501 53.1838 203.528 52.1432 203.528 50.8251C203.528 49.6458 204.501 48.4665 205.82 48.4665H217.695V30.8459C217.695 29.5278 218.737 28.5566 220.056 28.5566C221.376 28.5566 222.417 29.5278 222.417 30.8459V48.4665H234.778Z" fill="currentColor"></path><path d="M309.917 72.1225V101.536C309.917 102.854 309.153 103.826 307.973 103.826C306.653 103.826 306.028 102.854 306.028 101.536V72.1225C306.028 62.2022 300.265 52.2819 289.153 52.2819C274.917 52.2819 268.598 64.6996 269.362 77.3947C269.362 77.7416 269.292 79.1984 269.292 79.4066V101.536C269.292 102.854 268.667 103.826 267.348 103.826C266.028 103.826 265.403 102.854 265.403 101.536V4.90061C265.403 3.72128 266.028 2.61133 267.348 2.61133C268.667 2.61133 269.292 3.79065 269.292 4.90061V59.566C274.015 52.4901 280.334 47.7034 288.598 47.7034C302.14 47.7034 309.917 59.5661 309.917 72.1225Z" fill="currentColor"></path><path d="M393.112 76.4235C393.112 77.7416 391.931 78.9209 390.612 78.9209H344.501C345.681 89.8818 354.223 100.565 366.306 100.565C374.57 100.565 380.681 97.374 385.334 90.7142C385.82 90.0205 386.515 89.5349 387.348 89.5349C388.667 89.5349 389.64 90.5061 389.64 91.8242C389.64 92.3098 389.501 92.6567 389.292 93.0035C384.64 101.12 375.403 105.074 366.306 105.074C350.751 105.074 339.709 91.1998 339.709 76.3542C339.709 61.5085 350.751 47.7034 366.306 47.7034C381.862 47.7034 393.112 61.5778 393.112 76.4235ZM388.181 74.2036C387.209 62.4797 378.459 52.4207 366.376 52.4207C354.292 52.4207 345.681 62.4797 344.57 74.2036H388.181Z" fill="currentColor"></path><path d="M449.848 50.8251C449.848 52.2819 449.014 53.1144 447.626 53.3225C434.084 55.3343 427.903 66.3645 427.903 79.2678V101.328C427.903 102.646 426.862 103.617 425.542 103.617C424.223 103.617 423.181 102.646 423.181 101.328V50.9639C423.181 49.6458 424.223 48.6746 425.542 48.6746C426.862 48.6746 427.903 49.6458 427.903 50.9639V61.231C431.792 54.7794 439.362 48.6746 447.278 48.6746C448.459 48.6746 449.848 49.5071 449.848 50.8251Z" fill="currentColor"></path><path d="M525.681 76.4235C525.681 77.7416 524.501 78.9209 523.181 78.9209H477.07C478.251 89.8818 486.792 100.565 498.876 100.565C507.14 100.565 513.251 97.374 517.904 90.7142C518.39 90.0205 519.084 89.5349 519.917 89.5349C521.237 89.5349 522.209 90.5061 522.209 91.8242C522.209 92.3098 522.07 92.6567 521.862 93.0035C517.209 101.12 507.973 105.074 498.876 105.074C483.32 105.074 472.278 91.1998 472.278 76.3542C472.278 61.5085 483.32 47.7034 498.876 47.7034C514.431 47.634 525.681 61.5778 525.681 76.4235ZM520.751 74.2036C519.779 62.4797 511.028 52.4207 498.945 52.4207C486.862 52.4207 478.251 62.4797 477.14 74.2036H520.751Z" fill="currentColor"></path><path d="M600.612 51.3107V101.814C600.612 103.132 599.431 104.103 598.251 104.103C596.931 104.103 595.89 103.132 595.89 101.814V92.3098C592.001 99.8714 585.265 105.352 576.653 105.352C562.903 105.352 555.265 93.4891 555.265 80.9327V51.3801C555.265 50.2008 556.306 49.0908 557.626 49.0908C558.945 49.0908 559.987 50.2701 559.987 51.3801V80.9327C559.987 90.853 565.612 100.773 576.723 100.773C592.278 100.773 595.959 86.2744 595.959 70.2494V51.4495C595.959 50.2701 597.001 49.1602 598.32 49.1602C599.431 49.0214 600.612 50.2008 600.612 51.3107Z" fill="currentColor"></path><path d="M717.001 71.9837V101.536C717.001 102.854 715.82 103.826 714.64 103.826C713.32 103.826 712.278 102.854 712.278 101.536V71.9837C712.278 62.0635 706.653 52.3513 695.542 52.3513C681.653 52.3513 676.306 67.197 676.306 78.7822V101.536C676.306 102.854 675.126 103.826 673.945 103.826C672.626 103.826 671.584 102.854 671.584 101.536V71.9837C671.584 62.0635 666.098 52.3513 655.056 52.3513C641.028 52.3513 635.195 63.3815 635.681 78.0885V101.536C635.681 102.854 634.64 103.826 633.32 103.826C632.001 103.826 630.959 102.854 630.959 101.536V51.0332C630.959 49.7152 632.001 48.744 633.32 48.744C634.64 48.744 635.681 49.7152 635.681 51.0332V59.4273C639.57 52.3513 646.862 47.7034 655.126 47.7034C664.57 47.7034 671.862 53.6694 674.848 62.4103C678.667 53.8082 686.098 47.7034 695.681 47.7034C709.292 47.7034 717.001 59.4273 717.001 71.9837Z" fill="currentColor"></path><path d="M43.4738 0L0 71.8028L43.4738 52.1586V0Z" fill="currentColor"></path><path d="M43.4738 52.1586L0 71.8028L43.4738 97.3868V52.1586Z" fill="currentColor" fill-opacity="0.8"></path><path d="M87 71.8028L43.4738 0V52.1586L87 71.8028Z" fill="currentColor" fill-opacity="0.8"></path><path d="M43.4738 97.3868L87 71.8028L43.4738 52.1586V97.3868Z" fill="currentColor" fill-opacity="0.6"></path><path d="M0 80.0354L43.4738 141V105.568L0 80.0354Z" fill="currentColor"></path><path d="M43.4738 105.568V141L87 80.0354L43.4738 105.568Z" fill="currentColor" fill-opacity="0.8"></path></svg>