<svg fill="none" height="123" viewBox="0 0 611 123" width="611" xmlns="http://www.w3.org/2000/svg"><path clip-rule="evenodd" d="M212.035 60.6676L151.975 0.786133V44.6299L92.3473 88.5246L151.975 88.5754V120.524L212.035 60.6676Z" fill="currentColor" fill-rule="evenodd"></path><path clip-rule="evenodd" d="M0.285156 60.6423L60.3448 120.499V77.0108L119.972 32.7603L60.3448 32.7095V0.786133L0.285156 60.6423Z" fill="currentColor" fill-rule="evenodd"></path><path d="M301.525 90.5562H255.546V77.365L281.852 48.0341H256.207V35.0462H301.042V47.5766L273.948 77.4665H301.5V90.5562H301.525Z" fill="currentColor"></path><path d="M364.253 35.0478L342.014 58.4058L364.71 90.5576H346.309L331.618 69.335L325.416 75.8669V90.5323H310.395V8.86863H325.416V55.6861L344.606 35.0478H364.253Z" fill="currentColor"></path><path d="M429.6 29.6309L415.595 33.9263C415.061 31.0796 413.638 28.4617 411.3 26.1488C408.961 23.8105 405.53 22.6413 401.031 22.6413C397.346 22.6413 394.321 23.658 391.983 25.6913C389.645 27.6484 388.476 30.0121 388.476 32.808C388.476 37.688 391.373 40.7125 397.168 41.8309L408.351 43.9659C415.442 45.313 420.932 48.1342 424.847 52.4297C428.761 56.7251 430.718 61.7573 430.718 67.5523C430.718 74.1608 428.075 79.9558 422.814 84.9373C417.629 89.8173 410.614 92.2827 401.794 92.2827C396.736 92.2827 392.186 91.5205 388.12 90.0209C384.053 88.5212 380.774 86.5136 378.284 84.0477C375.792 81.4808 373.836 78.812 372.412 76.0416C371.065 73.1951 370.226 70.2466 369.921 67.2473L384.384 63.4097C384.765 67.7051 386.417 71.2636 389.365 74.1355C392.364 76.982 396.558 78.4308 401.896 78.4308C405.962 78.4308 409.114 77.5158 411.376 75.7112C413.714 73.9066 414.884 71.5427 414.884 68.5947C414.884 66.2562 414.019 64.274 412.291 62.6216C410.639 60.8936 408.25 59.7243 405.174 59.1143L393.991 56.852C387.51 55.5051 382.401 52.8362 378.639 48.8459C374.877 44.8555 372.997 39.8992 372.997 33.9517C372.997 26.8859 375.716 20.9384 381.13 16.1346C386.62 11.3309 393.229 8.91631 400.904 8.91631C405.505 8.91631 409.597 9.55169 413.206 10.8225C416.815 12.0934 419.712 13.8217 421.899 16.0075C424.084 18.1171 425.787 20.303 426.982 22.5396C428.176 24.8017 429.066 27.1655 429.574 29.6563L429.6 29.6309Z" fill="currentColor"></path><path d="M456.031 112.44H440.095L453.185 83.5665L429.573 35.0462H446.399L461.191 67.5543L474.865 35.0462H490.901L456.006 112.44H456.031Z" fill="currentColor"></path><path d="M511.66 58.6073V90.5308H496.64V35.0462H511.202V41.9341C512.778 39.2145 515.042 37.1558 517.99 35.7324C520.937 34.3091 524.012 33.5974 527.242 33.5974C533.801 33.5974 538.754 35.6562 542.16 39.7991C545.615 43.8658 547.348 49.127 547.348 55.6081V90.5815H532.322V58.2008C532.322 54.8965 531.458 52.2277 529.731 50.1947C528.082 48.1612 525.515 47.1445 522.055 47.1445C518.902 47.1445 516.365 48.2374 514.481 50.4231C512.602 52.6093 511.66 55.3543 511.66 58.6581V58.6073Z" fill="currentColor"></path><path d="M584.177 47.2208C580.185 47.2208 576.833 48.6187 574.115 51.3893C571.392 54.1597 570.045 57.9719 570.045 62.7758C570.045 67.5797 571.392 71.4173 574.115 74.2897C576.906 77.0854 580.288 78.4577 584.28 78.4577C587.813 78.4577 590.633 77.5427 592.742 75.7381C594.855 73.8573 596.275 71.6462 597.036 69.0793L610.256 73.4762C608.909 78.585 605.961 82.9819 601.438 86.6673C596.909 90.3527 591.195 92.2081 584.255 92.2081C575.969 92.2081 569.005 89.4377 563.359 83.8462C557.796 78.2039 555 71.1631 555 62.7504C555 54.3373 557.742 47.2208 563.232 41.6545C568.8 36.0883 575.662 33.2924 583.797 33.2924C590.887 33.2924 596.685 35.1479 601.179 38.8333C605.708 42.4424 608.602 46.8395 609.875 52.0247L596.426 56.5489C594.625 50.2962 590.507 47.1954 584.128 47.1954L584.177 47.2208Z" fill="currentColor"></path></svg>