<svg fill="none" height="163" viewBox="0 0 751 163" width="751" xmlns="http://www.w3.org/2000/svg"><path d="M219.423 55C221.27 55 222.872 55.3718 224.145 56.1566C225.417 56.9414 226.69 58.4285 227.922 60.6591L252.312 105.188C252.558 105.684 252.599 106.097 252.476 106.427C252.353 106.758 251.983 106.923 251.408 106.923H242.047C241.225 106.923 240.651 106.593 240.363 105.973L235.149 96.4311H200.535L195.444 105.973C195.115 106.634 194.541 106.923 193.76 106.923H184.193C183.537 106.923 183.167 106.758 183.044 106.427C182.921 106.097 182.962 105.684 183.208 105.188L207.392 60.6591C208.624 58.4285 209.815 56.9414 211.006 56.1566C212.196 55.3718 213.551 55 215.111 55H219.423ZM205.093 87.7566H230.468L218.766 66.029C218.56 65.6985 218.314 65.492 217.945 65.492H217.493C217.164 65.492 216.877 65.6572 216.672 66.029L205.093 87.7566Z" fill="currentColor"></path><path d="M305.895 55C311.561 55 315.585 56.2805 318.048 58.8416C320.512 61.4026 321.744 65.2029 321.744 70.2423V74.4557C321.744 78.7103 320.881 82.0562 319.157 84.5346C317.432 87.013 314.64 88.5827 310.74 89.2849L323.345 104.982C323.591 105.229 323.673 105.601 323.55 106.097C323.468 106.593 323.058 106.84 322.36 106.84H312.875C312.218 106.84 311.807 106.758 311.561 106.634C311.314 106.469 311.068 106.221 310.822 105.89L299.161 90.4828H275.346V105.229C275.346 106.303 274.812 106.84 273.745 106.84H265.779C264.63 106.84 264.096 106.303 264.096 105.229V57.2306C264.096 55.7435 264.835 55 266.313 55H305.895ZM275.387 81.4779H303.595C306.1 81.4779 307.865 80.9409 308.892 79.8669C309.918 78.7929 310.452 77.1406 310.452 74.91V71.812C310.452 69.5814 309.918 67.9291 308.892 66.8551C307.865 65.7812 306.1 65.2442 303.595 65.2442H276.332C275.675 65.2442 275.387 65.5333 275.387 66.1529V81.4779Z" fill="currentColor"></path><path d="M383.374 55C388.425 55 392.038 56.0327 394.173 58.0567C396.308 60.0808 397.376 63.1375 397.376 67.2269V70.7793C397.376 74.91 395.815 78.0494 392.654 80.1974C396.021 82.1801 397.745 85.3607 397.745 89.7393V94.0353C397.745 96.018 397.54 97.7942 397.088 99.3639C396.637 100.934 395.939 102.297 394.912 103.412C393.886 104.527 392.572 105.395 390.888 105.973C389.205 106.551 387.152 106.882 384.688 106.882H340.919C339.44 106.882 338.701 106.138 338.701 104.651V57.2306C338.701 55.7435 339.44 55 340.919 55H383.374ZM349.993 76.5623H380.213C382.676 76.5623 384.319 76.1906 385.222 75.447C386.125 74.7035 386.536 73.6295 386.536 72.1838V69.664C386.536 68.1357 386.125 67.0204 385.263 66.2768C384.401 65.5746 383.005 65.2029 381.116 65.2029H350.978C350.321 65.2029 350.034 65.5333 350.034 66.1529V76.5623H349.993ZM349.993 84.6585V95.6875C349.993 96.3485 350.321 96.6376 350.937 96.6376H381.157C383.128 96.6376 384.524 96.2658 385.345 95.5636C386.166 94.8614 386.618 93.7048 386.618 92.1351V89.3262C386.618 87.7979 386.166 86.6413 385.263 85.8564C384.36 85.0716 382.676 84.6585 380.213 84.6585H349.993Z" fill="currentColor"></path><path d="M425.214 55C426.282 55 426.815 55.537 426.815 56.611V105.229C426.815 106.303 426.282 106.84 425.214 106.84H417.249C416.099 106.84 415.565 106.303 415.565 105.229V56.6523C415.565 55.5783 416.14 55.0413 417.249 55.0413L425.214 55Z" fill="currentColor"></path><path d="M502.407 55C503.556 55 504.09 55.537 504.09 56.611V63.881C504.09 65.0376 503.515 65.5746 502.407 65.5746H479.29V105.229C479.29 106.303 478.756 106.84 477.689 106.84H469.641C468.573 106.84 468.04 106.303 468.04 105.229V65.5746H444.923C443.773 65.5746 443.239 64.9963 443.239 63.881V56.611C443.239 55.537 443.814 55 444.923 55H502.407Z" fill="currentColor"></path><path d="M560.67 55C566.337 55 570.36 56.2805 572.824 58.8416C575.288 61.4026 576.519 65.2029 576.519 70.2423V74.4557C576.519 78.7103 575.657 82.0562 573.933 84.5346C572.208 87.013 569.416 88.5827 565.515 89.2849L578.121 104.982C578.367 105.229 578.449 105.601 578.326 106.097C578.244 106.593 577.833 106.84 577.135 106.84H567.65C566.993 106.84 566.583 106.758 566.337 106.634C566.09 106.469 565.844 106.221 565.597 105.89L553.937 90.4828H530.122V105.229C530.122 106.303 529.588 106.84 528.521 106.84H520.555C519.405 106.84 518.871 106.303 518.871 105.229V57.2306C518.871 55.7435 519.611 55 521.089 55H560.67ZM530.204 81.4779H558.412C560.917 81.4779 562.682 80.9409 563.709 79.8669C564.735 78.7929 565.269 77.1406 565.269 74.91V71.812C565.269 69.5814 564.735 67.9291 563.709 66.8551C562.682 65.7812 560.917 65.2442 558.412 65.2442H531.148C530.491 65.2442 530.204 65.5333 530.204 66.1529V81.4779Z" fill="currentColor"></path><path d="M602.1 55C603.167 55 603.701 55.537 603.701 56.611V86.1869C603.701 88.1696 603.865 89.8219 604.194 91.1024C604.522 92.4243 605.056 93.4569 605.795 94.2005C606.534 94.9853 607.52 95.5223 608.792 95.8115C610.065 96.1419 611.625 96.3071 613.555 96.3071H633.962C635.892 96.3071 637.452 96.1419 638.725 95.8115C639.998 95.481 640.983 94.944 641.722 94.2005C642.461 93.4156 642.995 92.383 643.283 91.1024C643.57 89.7806 643.734 88.1696 643.734 86.1869V56.611C643.734 55.537 644.268 55 645.336 55H653.383C654.451 55 654.985 55.537 654.985 56.611V87.3022C654.985 90.8546 654.615 93.87 653.876 96.3897C653.137 98.8682 651.946 100.892 650.304 102.462C648.661 104.032 646.526 105.147 643.898 105.849C641.271 106.551 638.109 106.882 634.373 106.882H613.145C609.408 106.882 606.247 106.551 603.66 105.849C601.073 105.147 598.938 104.032 597.296 102.462C595.653 100.892 594.463 98.8682 593.682 96.3897C592.902 93.9113 592.533 90.8546 592.533 87.3022V56.611C592.533 55.537 593.108 55 594.216 55H602.1Z" fill="currentColor"></path><path d="M686.642 55C687.709 55 688.654 55.0826 689.434 55.2065C690.214 55.3718 690.912 55.6196 691.487 56.074C692.062 56.487 692.595 57.0654 693.088 57.7676C693.54 58.4698 694.032 59.4199 694.525 60.6178L709.84 96.1832C710.046 96.6376 710.374 96.8441 710.867 96.8441H711.77C712.263 96.8441 712.591 96.6376 712.797 96.1832L728.112 60.6178C728.605 59.4199 729.097 58.4698 729.549 57.7676C730.001 57.0654 730.534 56.487 731.15 56.074C731.725 55.6609 732.423 55.3718 733.162 55.2065C733.942 55.0413 734.846 55 735.913 55H743.797C746.343 55 748.067 55.5783 748.97 56.7349C749.874 57.8915 750.284 59.8742 750.284 62.6831V105.229C750.284 106.303 749.709 106.84 748.601 106.84H741.087C740.019 106.84 739.486 106.303 739.486 105.229V66.5247C739.486 66.029 739.28 65.7812 738.911 65.7812H738.254C737.761 65.7812 737.433 65.9877 737.309 66.3595L722.446 99.5704C721.871 100.892 721.255 102.049 720.639 102.958C720.023 103.866 719.366 104.61 718.668 105.229C717.97 105.808 717.149 106.262 716.246 106.51C715.342 106.758 714.275 106.882 713.043 106.882H709.512C708.28 106.882 707.213 106.758 706.309 106.51C705.406 106.262 704.585 105.849 703.887 105.229C703.189 104.651 702.491 103.866 701.916 102.958C701.3 102.049 700.684 100.934 700.109 99.5704L685.246 66.3595C685.081 65.9464 684.794 65.7812 684.301 65.7812H683.644C683.234 65.7812 683.069 66.029 683.069 66.5247V105.229C683.069 106.303 682.536 106.84 681.468 106.84H673.954C672.804 106.84 672.271 106.303 672.271 105.229V62.6831C672.271 59.8742 672.722 57.8915 673.585 56.7349C674.488 55.5783 676.212 55 678.799 55H686.642Z" fill="currentColor"></path><path clip-rule="evenodd" d="M72 0C69.8726 0 67.7451 0.565097 65.8504 1.66205L6.14958 36.133C2.36011 38.3269 0 42.3823 0 46.7701V115.712C0 120.1 2.36011 124.188 6.14958 126.382L65.8504 160.853C67.7451 161.95 69.8726 162.515 72 162.515C74.1274 162.515 76.2548 161.95 78.1496 160.853L137.85 126.382C141.673 124.188 144 120.133 144 115.712V46.7701C144 42.3823 141.64 38.2936 137.85 36.0997L78.1828 1.66205C76.2548 0.565097 74.1274 0 72 0ZM72 10.072C72.3989 10.072 72.7645 10.1717 73.1302 10.3712L132.831 44.8421C133.529 45.241 133.961 45.9723 133.961 46.7701V115.712C133.961 116.51 133.529 117.241 132.831 117.64L123.744 122.892L99.8237 57.3073C99.3916 56.1106 97.7295 56.1106 97.2974 57.3073L89.4193 78.8807C89.1866 79.479 89.1866 80.1438 89.4193 80.7422L108.09 131.939L101.875 135.531L86.5937 93.6077C86.1616 92.411 84.4995 92.411 84.0674 93.6077L76.1893 115.181C75.9566 115.779 75.9566 116.444 76.1893 117.043L86.2221 144.578L73.1302 152.144C72.7978 152.343 72.3989 152.443 72 152.443C71.6011 152.443 71.2355 152.343 70.8698 152.144L57.9098 144.657L94.7368 43.6786C95.0692 42.7811 94.4044 41.8504 93.4736 41.8504H78.349C77.2188 41.8504 76.1883 42.5484 75.8227 43.6122L43.7998 131.381L38.0276 126.582L36.0413 132.023L36.0392 132.022L68.2769 43.6454C68.5761 42.7811 67.9445 41.8504 66.9805 41.8504H51.8559C50.7257 41.8504 49.6952 42.5484 49.3296 43.6122L20.3833 122.977L11.2022 117.673C10.5042 117.274 10.072 116.543 10.072 115.745V46.7701C10.072 45.9723 10.5042 45.241 11.2022 44.8421L70.903 10.3712C71.2355 10.1717 71.6343 10.072 72 10.072Z" fill="currentColor" fill-rule="evenodd"></path></svg>