<svg width="70" height="24" viewBox="0 0 70 24" fill="none" xmlns="http://www.w3.org/2000/svg">
<g clip-path="url(#clip0_215_104)">
<path d="M1.06445 19.139V0.93405L7.72672 4.67945V23.1567L1.06445 19.139ZM11.1316 19.139V0.93405L17.7939 4.67945V23.1567L11.1316 19.139ZM21.1988 19.139V0.93405L27.8611 4.67945V23.1567L21.1988 19.139ZM41.912 3.05644H44.3862V14.2699H41.7077L39.0746 9.97976C38.1666 8.527 37.5083 7.40337 37.0997 6.59755C37.1678 7.89141 37.1905 9.34417 37.1905 10.9331V14.2586H34.7163V3.04509H37.4629L40.323 7.72117C41.1175 9.00368 41.6623 9.93436 41.9801 10.5132C41.9347 9.62791 41.912 8.3454 41.912 6.64294V3.05644ZM51.2074 10.0365V7.89141H56.5418V14.2699H54.601L54.5102 13.3052C53.8632 14.1224 52.8418 14.531 51.4344 14.531C49.7546 14.531 48.4154 13.9862 47.428 12.8853C46.4405 11.7844 45.9411 10.377 45.9411 8.64049C45.9184 6.93804 46.4405 5.53067 47.4847 4.42975C48.5516 3.31748 49.9476 2.76135 51.6841 2.78405C52.6602 2.78405 53.5227 2.94295 54.2718 3.26074C55.0322 3.57853 55.7927 4.11197 56.5758 4.87239L54.9641 6.5408C54.3286 5.98466 53.7724 5.59877 53.273 5.37178C52.7737 5.15614 52.2516 5.04264 51.6841 5.04264C50.7194 5.04264 49.9476 5.34908 49.3801 5.97331C48.824 6.59755 48.5402 7.48282 48.5402 8.62914C48.5402 9.80951 48.8126 10.7175 49.3574 11.3644C49.9135 12 50.674 12.3064 51.6273 12.3064C52.4445 12.3064 53.0801 12.1135 53.5341 11.7276C53.9994 11.3304 54.2264 10.7856 54.2264 10.0819V10.0365H51.2074ZM63.5672 2.7727C64.4638 2.7727 65.2243 2.9089 65.8599 3.16994C66.5068 3.44233 67.1651 3.88497 67.8347 4.49785L66.3252 6.25706C65.7691 5.78037 65.2924 5.46258 64.8838 5.29233C64.4979 5.11074 64.0439 5.01994 63.5445 5.01994C62.6025 5.01994 61.8648 5.34908 61.2973 5.99601C60.7525 6.64295 60.4801 7.51687 60.4801 8.62914C60.4801 9.75276 60.7525 10.6494 61.2973 11.2963C61.8534 11.9433 62.6025 12.2724 63.5218 12.2724C64.0666 12.2724 64.5433 12.1702 64.9405 11.9773C65.3491 11.7844 65.8712 11.4439 66.5068 10.9331L67.9709 12.6696C67.2786 13.3166 66.5749 13.7819 65.8712 14.0883C65.1789 14.3834 64.4071 14.531 63.5559 14.531C61.8307 14.531 60.4461 13.9748 59.4246 12.8739C58.3918 11.7617 57.881 10.3316 57.881 8.59509C57.881 6.89264 58.3918 5.48528 59.4132 4.39571C60.4347 3.31749 61.8194 2.7727 63.5672 2.7727ZM36.589 21.6699L38.1439 17.0733H37.724L36.362 21.2727H36.3393L34.9887 17.0847H34.546L36.0896 21.6813H36.589V21.6699ZM41.231 21.7494C41.8666 21.7494 42.3319 21.4202 42.5476 20.9322L42.2638 20.7393C42.0822 21.1819 41.7191 21.4202 41.2424 21.4202C40.55 21.4202 40.1414 20.9322 40.1414 20.2285V20.0583H42.6384V19.8767C42.6384 18.8893 42.0822 18.2196 41.2197 18.2196C40.323 18.2196 39.7556 18.8779 39.7556 19.9788C39.7556 21.0798 40.3344 21.7494 41.231 21.7494ZM41.2197 18.5374C41.8212 18.5374 42.2298 19.0028 42.2298 19.7178V19.7745H40.1414V19.7405C40.1528 19.0255 40.5727 18.5374 41.2197 18.5374ZM45.2829 21.6699V19.2979C45.2829 18.7985 45.7255 18.5601 46.2022 18.5601C46.7583 18.5601 47.0648 18.8893 47.0648 19.5702V21.6699H47.4393V19.5021C47.4393 18.685 47.0194 18.2196 46.3043 18.2196C45.7595 18.2196 45.4645 18.4807 45.3056 18.8325H45.2829V18.2991H44.9083V21.6699H45.2829V21.6699ZM51.1847 21.6699V21.3408H50.4697V18.6282H51.2301V18.2991H50.4697V17.3571H50.1292V18.038C50.1292 18.231 50.0724 18.2991 49.8908 18.2991H49.5049V18.6282H50.0951V21.25C50.0951 21.4997 50.2427 21.6699 50.5151 21.6699H51.1847V21.6699ZM55.5543 21.6699H55.9289V18.2991H55.5543V20.6598C55.5543 21.1706 55.1117 21.4089 54.6464 21.4089C54.0902 21.4089 53.7838 21.0798 53.7838 20.3874V18.2991H53.4092V20.4669C53.4092 21.2841 53.8405 21.7494 54.5556 21.7494C55.1344 21.7494 55.4068 21.4543 55.5316 21.1365H55.5543V21.6699ZM58.8457 21.6699V19.366C58.8457 18.9347 59.243 18.6736 59.8105 18.6736H60.1056V18.3104H59.8786C59.2997 18.3104 59.0046 18.5942 58.8684 18.912H58.8457V18.3104H58.4712V21.6813H58.8457V21.6699ZM63.3289 21.7494C63.9645 21.7494 64.4298 21.4202 64.6454 20.9322L64.373 20.7506C64.1914 21.1933 63.8283 21.4316 63.3516 21.4316C62.6592 21.4316 62.2506 20.9436 62.2506 20.2399V20.0583H64.7476V19.8767C64.7476 18.8893 64.1914 18.2196 63.3289 18.2196C62.4322 18.2196 61.8648 18.8779 61.8648 19.9788C61.8648 21.0798 62.4209 21.7494 63.3289 21.7494ZM63.3175 18.5374C63.9191 18.5374 64.3276 19.0028 64.3276 19.7178V19.7745H62.2393V19.7405C62.2507 19.0255 62.6706 18.5374 63.3175 18.5374ZM67.9596 21.7494C68.6973 21.7494 69.1513 21.3748 69.1513 20.7506C69.1513 20.2058 68.8335 19.9107 68.1411 19.8086L67.8687 19.7745C67.3921 19.6951 67.1424 19.5475 67.1424 19.1617C67.1424 18.7758 67.4261 18.5601 67.9028 18.5601C68.3681 18.5601 68.6405 18.7758 68.8221 18.9914L69.0718 18.7644C68.8221 18.458 68.4816 18.2423 67.9255 18.2423C67.2786 18.2423 66.7792 18.5601 66.7792 19.1844C66.7792 19.7859 67.1991 20.0356 67.812 20.1264L68.0844 20.1718C68.5724 20.2399 68.7767 20.4442 68.7767 20.8074C68.7767 21.216 68.4816 21.4429 67.9709 21.4429C67.5283 21.4429 67.1991 21.2614 66.9267 20.8982L66.6543 21.1138C66.9721 21.5224 67.3807 21.7494 67.9596 21.7494Z" fill="#0B3460"/>
</g>
<defs>
<clipPath id="clip0_215_104">
<rect width="70" height="24" fill="white"/>
</clipPath>
</defs>
</svg>
